<?xml version="1.0" encoding="UTF-8" standalone="no"?>
<!-- Created with Inkscape (http://www.inkscape.org/) -->

<svg
   xmlns:dc="http://purl.org/dc/elements/1.1/"
   xmlns:cc="http://creativecommons.org/ns#"
   xmlns:rdf="http://www.w3.org/1999/02/22-rdf-syntax-ns#"
   xmlns:svg="http://www.w3.org/2000/svg"
   xmlns="http://www.w3.org/2000/svg"
   xmlns:sodipodi="http://sodipodi.sourceforge.net/DTD/sodipodi-0.dtd"
   xmlns:inkscape="http://www.inkscape.org/namespaces/inkscape"
   id="svg2"
   version="1.1"
   inkscape:version="0.48.2 r9819"
   width="608.67125"
   height="440.625"
   xml:space="preserve"
   sodipodi:docname="lasercut_case.ai"><metadata
     id="metadata8"><rdf:RDF><cc:Work
         rdf:about=""><dc:format>image/svg+xml</dc:format><dc:type
           rdf:resource="http://purl.org/dc/dcmitype/StillImage" /><dc:title></dc:title></cc:Work></rdf:RDF></metadata><defs
     id="defs6" /><sodipodi:namedview
     pagecolor="#ffffff"
     bordercolor="#666666"
     borderopacity="1"
     objecttolerance="10"
     gridtolerance="10"
     guidetolerance="10"
     inkscape:pageopacity="0"
     inkscape:pageshadow="2"
     inkscape:window-width="1440"
     inkscape:window-height="852"
     id="namedview4"
     showgrid="false"
     inkscape:zoom="2.4869117"
     inkscape:cx="474.23745"
     inkscape:cy="269.03007"
     inkscape:window-x="0"
     inkscape:window-y="0"
     inkscape:window-maximized="1"
     inkscape:current-layer="layer1" /><g
     id="g10"
     inkscape:groupmode="layer"
     inkscape:label="EMS_lasercut_case_2016"
     transform="matrix(1.25,0,0,-1.25,0,440.625)"
     style="display:inline"><g
       id="g12"
       transform="translate(227.7642,350.728)"
       style="stroke:#ff0000;stroke-opacity:1;stroke-width:1;stroke-miterlimit:4;stroke-dasharray:none"><path
         d="m 0,0 21.968,0 0,-8.504 21.969,0 0,8.504 14.173,0 0,-8.504 14.174,0 0,8.504 14.172,0 0,-8.504 21.969,0 0,8.504 21.969,0 0,-15.874 -8.504,0 0,-15.874 8.504,0 0,-15.874 -8.504,0 0,-15.874 8.504,0 0,-15.874 -21.969,0 0,8.504 -21.969,0 0,-8.504 -14.172,0 0,8.504 -14.174,0 0,-8.504 -14.173,0 0,8.504 -21.969,0 0,-8.504 -21.968,0 0,15.874 8.504,0 0,15.874 -8.504,0 0,15.874 8.504,0 0,15.874 -8.504,0 L 0,0 z"
         style="fill:none;stroke:#ff0000;stroke-width:1;stroke-linecap:butt;stroke-linejoin:miter;stroke-miterlimit:4;stroke-opacity:1;stroke-dasharray:none"
         id="path14"
         inkscape:connector-curvature="0" /></g><g
       id="g16"
       transform="translate(358.1577,4.9004)"
       style="stroke:#ff0000;stroke-opacity:1;stroke-width:1;stroke-miterlimit:4;stroke-dasharray:none"><path
         d="m 0,0 -21.97,0 0,8.504 -21.968,0 0,-8.504 -14.172,0 0,8.504 -14.174,0 0,-8.504 -14.173,0 0,8.504 -21.969,0 0,-8.504 -21.969,0 0,15.875 8.504,0 0,15.873 -8.504,0 0,15.875 8.504,0 0,15.873 -8.504,0 0,15.875 21.969,0 0,-8.504 21.969,0 0,8.504 14.173,0 0,-8.504 14.174,0 0,8.504 14.172,0 0,-8.504 21.968,0 0,8.504 21.97,0 0,-15.875 -8.505,0 0,-15.873 8.505,0 0,-15.875 -8.505,0 0,-15.873 8.505,0 L 0,0 z"
         style="fill:none;stroke:#ff0000;stroke-width:1;stroke-linecap:butt;stroke-linejoin:miter;stroke-miterlimit:4;stroke-opacity:1;stroke-dasharray:none"
         id="path18"
         inkscape:connector-curvature="0" /></g><g
       id="g20"
       transform="translate(358.1577,92.7754)"
       style="stroke:#ff0000;stroke-opacity:1;stroke-width:1;stroke-miterlimit:4;stroke-dasharray:none"><path
         d="m 0,0 0,13.465 8.504,0 0,21.969 -8.504,0 0,14.173 8.504,0 0,14.172 -8.504,0 0,14.174 8.504,0 0,14.174 -8.504,0 0,14.172 8.504,0 0,14.174 -8.504,0 0,14.173 8.504,0 0,21.969 -8.504,0 0,13.464 15.874,0 0,8.504 15.874,0 0,-8.504 15.874,0 0,8.504 15.874,0 0,-8.504 15.874,0 0,-13.464 -8.504,0 0,-21.969 8.504,0 0,-14.173 -8.504,0 0,-14.174 8.504,0 0,-14.172 -8.504,0 0,-14.174 8.504,0 0,-14.174 -8.504,0 0,-14.172 8.504,0 0,-14.173 -8.504,0 0,-21.969 8.504,0 0,-13.465 -15.874,0 0,-8.504 -15.874,0 0,8.504 -15.874,0 0,-8.504 -15.874,0 0,8.504 L 0,0 z"
         style="fill:none;stroke:#ff0000;stroke-width:1;stroke-linecap:butt;stroke-linejoin:miter;stroke-miterlimit:4;stroke-opacity:1;stroke-dasharray:none"
         id="path22"
         inkscape:connector-curvature="0" /></g><g
       id="g24"
       transform="translate(148.3936,92.7754)"
       style="stroke:#ff0000;stroke-opacity:1;stroke-width:1;stroke-miterlimit:4;stroke-dasharray:none"><path
         d="m 0,0 0,13.465 8.504,0 0,21.969 -8.504,0 0,14.173 8.504,0 0,14.172 -8.504,0 0,14.174 8.504,0 0,14.174 -8.504,0 0,14.172 8.504,0 0,14.174 -8.504,0 0,14.173 8.504,0 0,21.969 -8.504,0 0,13.464 15.874,0 0,8.504 15.874,0 0,-8.504 15.874,0 0,8.504 15.874,0 0,-8.504 15.874,0 0,-13.464 -8.504,0 0,-21.969 8.504,0 0,-14.173 -8.504,0 0,-14.174 8.504,0 0,-14.172 -8.504,0 0,-14.174 8.504,0 0,-14.174 -8.504,0 0,-14.172 8.504,0 0,-14.173 -8.504,0 0,-21.969 8.504,0 0,-13.465 -15.874,0 0,-8.504 -15.874,0 0,8.504 -15.874,0 0,-8.504 -15.874,0 0,8.504 L 0,0 z"
         style="fill:none;stroke:#ff0000;stroke-width:1;stroke-linecap:butt;stroke-linejoin:miter;stroke-miterlimit:4;stroke-opacity:1;stroke-dasharray:none"
         id="path26"
         inkscape:connector-curvature="0" /></g><g
       id="g28"
       transform="translate(26.5039,262.8545)"
       style="stroke:#ff0000;stroke-opacity:1;stroke-width:1;stroke-miterlimit:4;stroke-dasharray:none"><path
         d="m 0,0 13.464,0 0,8.504 21.969,0 0,-8.504 14.173,0 0,8.504 14.174,0 0,-8.504 14.173,0 0,8.504 21.968,0 0,-8.504 13.465,0 0,-13.465 8.504,0 0,-21.969 -8.504,0 0,-14.172 8.504,0 0,-14.174 -8.504,0 0,-14.173 8.504,0 0,-14.173 -8.504,0 0,-14.174 8.504,0 0,-14.173 -8.504,0 0,-14.173 8.504,0 0,-21.968 -8.504,0 0,-13.465 -13.465,0 0,-8.504 -21.968,0 0,8.504 -14.173,0 0,-8.504 -14.174,0 0,8.504 -14.173,0 0,-8.504 -21.969,0 0,8.504 -13.464,0 0,13.465 -8.504,0 0,21.968 8.504,0 0,14.173 -8.504,0 0,14.173 8.504,0 0,14.174 -8.504,0 0,14.173 8.504,0 0,14.173 -8.504,0 0,14.174 8.504,0 0,14.172 -8.504,0 0,21.969 8.504,0 L 0,0 z"
         style="fill:none;stroke:#ff0000;stroke-width:1;stroke-linecap:butt;stroke-linejoin:miter;stroke-miterlimit:4;stroke-opacity:1;stroke-dasharray:none"
         id="path30"
         inkscape:connector-curvature="0" /></g><g
       id="g32"
       transform="translate(236.2681,262.8545)"
       style="stroke:#ff0000;stroke-opacity:1;stroke-width:1;stroke-miterlimit:4;stroke-dasharray:none"><path
         d="m 0,0 13.465,0 0,8.504 21.968,0 0,-8.504 14.172,0 0,8.504 14.174,0 0,-8.504 14.173,0 0,8.504 21.969,0 0,-8.504 13.465,0 0,-13.465 8.504,0 0,-21.969 -8.504,0 0,-14.172 8.504,0 0,-14.174 -8.504,0 0,-14.173 8.504,0 0,-14.173 -8.504,0 0,-14.174 8.504,0 0,-14.173 -8.504,0 0,-14.173 8.504,0 0,-21.968 -8.504,0 0,-13.465 -13.465,0 0,-8.504 -21.969,0 0,8.504 -14.173,0 0,-8.504 -14.174,0 0,8.504 -14.172,0 0,-8.504 -21.968,0 0,8.504 -13.465,0 0,13.465 -8.504,0 0,21.968 8.504,0 0,14.173 -8.504,0 0,14.173 8.504,0 0,14.174 -8.504,0 0,14.173 8.504,0 0,14.173 -8.504,0 0,14.174 8.504,0 0,14.172 -8.504,0 0,21.969 8.504,0 L 0,0 z"
         style="fill:none;stroke:#ff0000;stroke-width:1;stroke-linecap:butt;stroke-linejoin:miter;stroke-miterlimit:4;stroke-opacity:1;stroke-dasharray:none"
         id="path34"
         inkscape:connector-curvature="0" /></g><path
       d="m 293.47,327.75 -28.346,0 0,22.979 28.346,0 0,-22.979 z"
       style="fill:none;stroke:#ff0000;stroke-width:1;stroke-linecap:butt;stroke-linejoin:miter;stroke-miterlimit:4;stroke-opacity:1;stroke-dasharray:none"
       id="path36"
       inkscape:connector-curvature="0" /><path
       d="m 412.015,201.908 -28.346,0 0,46.772 28.346,0 0,-46.772 z"
       style="fill:none;stroke:#ff0000;stroke-width:1;stroke-linecap:butt;stroke-linejoin:miter;stroke-miterlimit:4;stroke-opacity:1;stroke-dasharray:none"
       id="path38"
       inkscape:connector-curvature="0" /><path
       d="m 412.016,140.963 -28.347,0 0,46.771 28.347,0 0,-46.771 z"
       style="fill:none;stroke:#ff0000;stroke-width:1;stroke-linecap:butt;stroke-linejoin:miter;stroke-miterlimit:4;stroke-opacity:1;stroke-dasharray:none"
       id="path40"
       inkscape:connector-curvature="0" /><path
       d="m 265.125,61.594 59.979,0 0,-5.67 -59.979,0 0,5.67 z"
       style="fill:none;stroke:#ff0000;stroke-width:1;stroke-linecap:butt;stroke-linejoin:miter;stroke-miterlimit:4;stroke-opacity:1;stroke-dasharray:none"
       id="path42"
       inkscape:connector-curvature="0" /><path
       d="m 207.104,109.784 -19.025,0 0,19.217 19.025,0 0,-19.217 z"
       style="fill:none;stroke:#ff0000;stroke-width:1;stroke-linecap:butt;stroke-linejoin:miter;stroke-miterlimit:4;stroke-opacity:1;stroke-dasharray:none"
       id="path68"
       inkscape:connector-curvature="0" /><path
       d="m 83.197,149 25.24,0 0,-13.037 -25.24,0 0,13.037 z"
       style="fill:none;stroke:#ff0000;stroke-width:1;stroke-linecap:butt;stroke-linejoin:miter;stroke-miterlimit:4;stroke-opacity:1;stroke-dasharray:none"
       id="path74"
       inkscape:connector-curvature="0" /></g><g
     inkscape:groupmode="layer"
     id="layer1"
     inkscape:label="text"
     style="display:inline"><text
       y="301.87503"
       x="-161.79625"
       style="font-size:15px;display:inline"
       transform="scale(-1,1)"
       id="text52"><tspan
         style="font-size:7.5px;font-variant:normal;font-weight:normal;font-stretch:normal;writing-mode:lr-tb;fill:#000000;fill-opacity:1;fill-rule:nonzero;stroke:none;font-family:Myriad Pro;-inkscape-font-specification:MyriadPro-Regular"
         x="-161.79625 -157.46875 -155.71375 -153.33624 -149.97624 -145.84375 -144.08875 -141.60625 -140.05376 -138.46375 -134.47375 -132.38126 -128.62375 -126.86875 -122.59375 -118.83625 -116.78125 -115.22874 -113.63875 -108.62125 -104.48875 -100.73125 -96.598747 -94.161247 -90.493752 -88.941254 -87.35125 -83.503754 -79.65625 -75.808746 -71.961258"
         y="301.87503"
         sodipodi:role="line"
         id="tspan54">Circuit: Pfeifer, Duente, 2015.</tspan><tspan
         style="font-size:7.5px;font-variant:normal;font-weight:normal;font-stretch:normal;writing-mode:lr-tb;fill:#000000;fill-opacity:1;fill-rule:nonzero;stroke:none;font-family:Myriad Pro;-inkscape-font-specification:MyriadPro-Regular"
         x="-161.79625 -157.73125 -153.97375 -150.36624 -148.61125 -145.64125 -143.88625 -139.76875 -135.60625 -132.63625 -131.08376 -129.49374 -126.05875 -121.94125 -117.67375 -113.91625 -111.02876 -109.47625 -107.88625 -102.86125 -98.743752 -94.551247 -90.936249 -89.383751 -87.793755 -83.946251 -80.098747 -76.251251 -72.403748 -70.851257"
         y="310.87503"
         sodipodi:role="line"
         id="tspan56">Revisions: Lopes, Doga, 2016.</tspan></text>
<text
       y="45.51638"
       x="-360.66837"
       style="font-size:15px;display:inline"
       transform="scale(-1,1)"
       id="text58"><tspan
         style="font-size:15px;font-variant:normal;font-weight:normal;font-stretch:normal;writing-mode:lr-tb;fill:#000000;fill-opacity:1;fill-rule:nonzero;stroke:none;font-family:Myriad Pro;-inkscape-font-specification:MyriadPro-Regular"
         x="-360.66837 -352.40335 -346.46335"
         y="45.51638"
         sodipodi:role="line"
         id="tspan60">usb</tspan></text>
<text
       y="-522.15826"
       x="-189.12112"
       style="font-size:15px;display:inline"
       transform="matrix(0,-1,-1,0,0,0)"
       id="text62"><tspan
         style="font-size:15px;font-variant:normal;font-weight:normal;font-stretch:normal;writing-mode:lr-tb;fill:#000000;fill-opacity:1;fill-rule:nonzero;stroke:none;font-family:Myriad Pro;-inkscape-font-specification:MyriadPro-Regular"
         x="-189.12112 -183.18112 -178.21613 -174.70613 -162.19612 -153.93112 -150.39113 -143.22112 -138.34612 -130.11113"
         y="-522.15826"
         sodipodi:role="line"
         id="tspan64">stimulator</tspan><tspan
         style="font-size:15px;font-variant:normal;font-weight:normal;font-stretch:normal;writing-mode:lr-tb;fill:#000000;fill-opacity:1;fill-rule:nonzero;stroke:none;font-family:Myriad Pro;-inkscape-font-specification:MyriadPro-Regular"
         x="-189.12112"
         sodipodi:role="line"
         id="tspan66"
         y="inf" /></text>
<text
       y="232.121"
       x="282.73077"
       style="font-size:15px;display:inline"
       transform="matrix(0,1,1,0,0,0)"
       id="text70"><tspan
         style="font-size:15px;font-variant:normal;font-weight:normal;font-stretch:normal;writing-mode:lr-tb;fill:#000000;fill-opacity:1;fill-rule:nonzero;stroke:none;font-family:Myriad Pro;-inkscape-font-specification:MyriadPro-Regular"
         x="282.73077 290.42575"
         y="232.121"
         sodipodi:role="line"
         id="tspan72">9v</tspan></text>
<text
       y="292.87476"
       x="-161.79625"
       style="font-size:15px;display:inline"
       transform="scale(-1,1)"
       id="text48"><tspan
         style="font-size:15px;font-variant:normal;font-weight:normal;font-stretch:normal;writing-mode:lr-tb;fill:#000000;fill-opacity:1;fill-rule:nonzero;stroke:none;font-family:Myriad Pro;-inkscape-font-specification:MyriadPro-Regular"
         x="-161.79625 -154.41624 -142.35625 -134.96124 -131.78125 -125.15125 -116.91625 -108.65125 -103.68625 -98.931252 -90.696251"
         y="292.87476"
         sodipodi:role="line"
         id="tspan50">EMS control</tspan></text>
<text
       y="-540.54077"
       x="-269.03226"
       style="font-size:15px;display:inline"
       transform="matrix(0,-1,-1,0,0,0)"
       id="text62-6"><tspan
         style="font-size:15px;font-variant:normal;font-weight:normal;font-stretch:normal;writing-mode:lr-tb;fill:#000000;fill-opacity:1;fill-rule:nonzero;stroke:none;font-family:Myriad Pro;-inkscape-font-specification:MyriadPro-Regular"
         sodipodi:role="line"
         id="tspan64-9"
         x="-269.03226"
         y="-540.54077" /><tspan
         style="font-size:15px;font-variant:normal;font-weight:normal;font-stretch:normal;writing-mode:lr-tb;fill:#000000;fill-opacity:1;fill-rule:nonzero;stroke:none;font-family:Myriad Pro;-inkscape-font-specification:MyriadPro-Regular"
         x="-269.03226"
         sodipodi:role="line"
         id="tspan66-1"
         y="-521.79077">electrodes</tspan></text>
</g></svg>